<svg width="28" height="23" viewBox="0 0 28 23" fill="none" xmlns="http://www.w3.org/2000/svg">
<path fill-rule="evenodd" clip-rule="evenodd" d="M3.81826 2.55556C3.12117 2.55556 2.54554 3.13347 2.54554 3.83333V19.1667C2.54554 19.8665 3.12117 20.4444 3.81826 20.4444H24.1817C24.8788 20.4444 25.4545 19.8665 25.4545 19.1667V3.83333C25.4545 3.13347 24.8788 2.55556 24.1817 2.55556H3.81826ZM0.000109317 3.83333C0.000109317 1.72208 1.71537 0 3.81826 0H24.1817C26.2846 0 27.9999 1.72208 27.9999 3.83333V19.1667C27.9999 21.2779 26.2846 23 24.1817 23H3.81826C1.71537 23 0.000109317 21.2779 0.000109317 19.1667V3.83333Z" fill="#FEFAFA"/>
<path fill-rule="evenodd" clip-rule="evenodd" d="M0.230176 3.10058C0.633264 2.52245 1.42684 2.38185 2.00268 2.78654L14 11.2181L25.9973 2.78654C26.5732 2.38185 27.3667 2.52245 27.7698 3.10058C28.1729 3.67871 28.0329 4.47544 27.457 4.88013L14.7299 13.8246C14.2916 14.1325 13.7084 14.1325 13.2701 13.8246L0.542971 4.88013C-0.032869 4.47544 -0.172912 3.67871 0.230176 3.10058Z" fill="#FEFAFA"/>
</svg>
