<svg width="26" height="26" viewBox="0 0 26 26" fill="none" xmlns="http://www.w3.org/2000/svg">
<path d="M18.8767 15.5525C18.5205 15.3151 16.9772 14.6027 16.7397 14.484C16.3836 14.3653 16.2648 14.2466 16.0274 14.7215C15.79 15.0776 15.1963 15.79 14.9589 16.0274C14.7215 16.2648 14.484 16.2648 14.2466 16.1461C13.8904 15.9087 12.9406 15.6712 11.6347 14.6027C10.6849 13.7717 10.0913 12.7032 9.85388 12.4658C9.61644 12.1096 9.85388 11.9909 9.9726 11.7534C10.0913 11.6347 10.3288 11.2785 10.4475 11.2785C10.5662 11.0411 10.6849 10.9224 10.8037 10.8036C10.9224 10.5662 10.9224 10.3288 10.8037 10.3288C10.6849 10.0913 10.0913 8.54794 9.85388 7.83561C9.73516 7.12328 9.379 7.36073 9.14155 7.36073C8.90411 7.36073 8.66667 7.36073 8.42922 7.36073C8.19178 7.36073 7.95434 7.47944 7.59818 7.83561C7.24201 8.19177 6.41096 8.90412 6.41096 10.4475C6.41096 11.9909 7.59818 13.5342 7.7169 13.7717C7.95434 14.0091 10.0913 17.2146 13.1781 18.6393C13.8904 18.9954 14.484 19.1142 14.9589 19.3516C15.6712 19.5891 16.5023 19.589 16.9772 19.4703C17.6895 19.3516 18.8767 18.758 19.1142 17.9269C19.4703 17.2146 19.4703 16.621 19.3516 16.3836C19.4703 15.6712 19.2329 15.5525 18.8767 15.5525ZM13.0594 23.5069C11.1598 23.5069 9.26028 23.032 7.59818 21.9635L7.12329 21.726L3.08676 22.7945L4.15525 18.8767L3.91781 18.4018C2.84932 16.7397 2.25571 14.7215 2.25571 12.7032C2.25571 6.76712 7.12329 2.13699 13.0594 2.13699C15.9087 2.13699 18.6393 3.3242 20.6575 5.34247C22.6758 7.36073 23.863 10.0913 23.863 12.9406C23.863 18.6393 18.8767 23.5069 13.0594 23.5069ZM22.2009 3.68036C19.7078 1.1872 16.5023 0 13.0594 0C5.93607 0 0.118722 5.69862 0.118722 12.9406C0.118722 15.3151 0.83105 17.4521 1.78082 19.3516L0 26L6.76712 24.2192C8.66667 25.2877 10.8037 25.7626 13.0594 25.7626C20.1827 25.7626 26 19.9452 26 12.8219C25.8813 9.379 24.6941 6.29223 22.2009 3.68036Z" fill="white"/>
</svg>
