<svg width="19" height="12" viewBox="0 0 19 12" fill="none" xmlns="http://www.w3.org/2000/svg">
<path d="M18.0292 1.42923C18.222 0.947172 18.0292 0.657935 17.4507 0.657935H15.426C14.944 0.657935 14.6547 0.947175 14.5583 1.23641C14.5583 1.23641 13.4978 3.74314 12.0516 5.38215C11.5695 5.86422 11.3767 5.96063 11.0875 5.96063C10.8946 5.96063 10.7982 5.76781 10.7982 5.38215V1.33282C10.7982 0.850761 10.6054 0.561523 10.2197 0.561523H7.03813C6.74889 0.561523 6.55606 0.754349 6.55606 1.04359C6.55606 1.52565 7.32736 1.62206 7.32736 3.06825V6.15346C7.32736 6.82834 7.13454 6.92476 6.94171 6.92476C6.26683 6.92476 4.5314 4.41803 3.56727 1.52565C3.37445 0.947174 3.18162 0.754349 2.69956 0.754349H0.674893C0.096417 0.754349 0 1.04359 0 1.33282C0 1.81489 0.674891 4.51444 3.18162 8.08171C4.91705 10.492 7.23095 11.8418 9.35203 11.8418C10.6054 11.8418 10.7982 11.5526 10.7982 11.0705V9.04583C10.7982 8.46736 10.991 8.37095 11.2803 8.37095C11.5695 8.37095 12.0516 8.56377 13.3049 9.72072C14.7511 11.1669 14.944 11.7454 15.7153 11.7454H17.7399C18.3184 11.7454 18.6076 11.4562 18.4148 10.8777C18.222 10.2992 17.6435 9.43149 16.6794 8.46736C16.1973 7.88888 15.5224 7.31041 15.2332 7.02117C14.944 6.63552 15.0404 6.44269 15.2332 6.15346C15.2332 6.15346 17.8363 2.58619 18.0292 1.42923Z" fill="white"/>
</svg>
