<svg width="21" height="20" viewBox="0 0 21 20" fill="none" xmlns="http://www.w3.org/2000/svg">
<path d="M18.9607 14.2691C18.9607 16.3901 17.2253 18.1256 15.2006 18.1256H6.61992C4.49884 18.1256 2.85983 16.3901 2.85983 14.2691V5.68835C2.85983 3.56727 4.59526 1.83184 6.61992 1.83184H15.2006C17.3217 1.83184 18.9607 3.56727 18.9607 5.68835V14.2691ZM15.0078 0H6.61992C3.43831 0 0.93158 2.60314 0.93158 5.78476V14.1727C0.93158 17.3543 3.53472 19.9574 6.61992 19.9574H13.176H15.0078C18.1894 19.9574 20.6962 17.3543 20.6962 14.1727V5.78476C20.7926 2.60314 18.1894 0 15.0078 0ZM10.8621 13.3049C9.03024 13.3049 7.48764 11.7623 7.48764 9.9305C7.48764 8.09866 8.93383 6.55606 10.8621 6.55606C12.7903 6.55606 14.2365 8.09866 14.2365 9.9305C14.2365 11.8588 12.6939 13.3049 10.8621 13.3049ZM10.8621 4.82063C8.06611 4.82063 5.75221 7.13454 5.75221 10.0269C5.75221 12.9193 8.06611 15.2332 10.8621 15.2332C13.658 15.2332 15.972 12.9193 15.972 10.0269C15.972 7.13454 13.658 4.82063 10.8621 4.82063ZM16.1648 3.37444C15.4899 3.37444 15.0078 3.95292 15.0078 4.53139C15.0078 5.10987 15.5863 5.68835 16.1648 5.68835C16.8397 5.68835 17.3217 5.10987 17.3217 4.53139C17.3217 3.95292 16.8397 3.37444 16.1648 3.37444Z" fill="white"/>
</svg>
