<svg width="15" height="27" viewBox="0 0 15 27" fill="none" xmlns="http://www.w3.org/2000/svg">
<path d="M0.43934 23.9393C-0.146446 24.5251 -0.146446 25.4749 0.43934 26.0607C1.02513 26.6464 1.97487 26.6464 2.56066 26.0607L0.43934 23.9393ZM13 13.5L14.0607 14.5607C14.6464 13.9749 14.6464 13.0251 14.0607 12.4393L13 13.5ZM2.56066 0.939342C1.97487 0.353555 1.02512 0.353555 0.439338 0.939342C-0.146448 1.52513 -0.146448 2.47488 0.439338 3.06066L2.56066 0.939342ZM2.56066 26.0607L14.0607 14.5607L11.9393 12.4393L0.43934 23.9393L2.56066 26.0607ZM14.0607 12.4393L2.56066 0.939342L0.439338 3.06066L11.9393 14.5607L14.0607 12.4393Z" fill="black"/>
</svg>
