<svg width="15" height="27" viewBox="0 0 15 27" fill="none" xmlns="http://www.w3.org/2000/svg">
<path d="M14.5607 3.06066C15.1464 2.47487 15.1464 1.52513 14.5607 0.93934C13.9749 0.353553 13.0251 0.353553 12.4393 0.93934L14.5607 3.06066ZM2 13.5L0.93934 12.4393C0.353553 13.0251 0.353553 13.9749 0.93934 14.5607L2 13.5ZM12.4393 26.0607C13.0251 26.6464 13.9749 26.6464 14.5607 26.0607C15.1464 25.4749 15.1464 24.5251 14.5607 23.9393L12.4393 26.0607ZM12.4393 0.93934L0.93934 12.4393L3.06066 14.5607L14.5607 3.06066L12.4393 0.93934ZM0.93934 14.5607L12.4393 26.0607L14.5607 23.9393L3.06066 12.4393L0.93934 14.5607Z" fill="black"/>
</svg>
